# xmcd
#
# Track frame offsets:
#	150
#	16530
#	34426
#	48066
#	66679
#	83635
#	97682
#	110365
#	130565
#	146945
#	164841
#	178481
#	197094
#	214050
#	228097
#	240780
#	272230
#
# Disc length: 3956 seconds
#
# Revision: 1
# Processed by: cddbd v1.5.2PL0 Copyright (c) Steve Scherf et al.
# Submitted via: audiograbber 1.83.01
#
DISCID=e80f7211
DTITLE=Various Country - ASK - 82003  Best Of Summer 2007 Country Volume 1
DYEAR=2007
DGENRE=Country
TTITLE0=Bucky Covington - A Different World
TTITLE1=Kenny Chesney - Beer In Mexico
TTITLE2=Miranda Lambert - Crazy Ex Girlfriend
TTITLE3=Kelly Pickler - Didn't You Know How Much I Loved You
TTITLE4=Blake Shelton - Don't Make Me 
TTITLE5=Eric Church - Guys Like Me 
TTITLE6=Blaine Larson  - Spoken Like A Man 
TTITLE7=Tim McGraw - The Last Dollar ( Fly Away) 
TTITLE8=Bucky Covington - A Different World
TTITLE9=Kenny Chesney - Beer In Mexico
TTITLE10=Miranda Lambert - Crazy Ex Girlfriend
TTITLE11=Kelly Pickler - Didn't You Know How Much I Loved You
TTITLE12=Blake Shelton - Don't Make Me 
TTITLE13=Eric Church - Guys Like Me 
TTITLE14=Blaine Larson  - Spoken Like A Man 
TTITLE15=Tim McGraw - The Last Dollar ( Fly Away) 
TTITLE16=Data Track - Data Track
EXTD=
EXTT0=
EXTT1=
EXTT2=
EXTT3=
EXTT4=
EXTT5=
EXTT6=
EXTT7=
EXTT8=
EXTT9=
EXTT10=
EXTT11=
EXTT12=
EXTT13=
EXTT14=
EXTT15=
EXTT16=
PLAYORDER=
